<svg width="104" height="64" viewBox="0 0 104 64" fill="none" xmlns="http://www.w3.org/2000/svg">
    <g id="no-data-art">
        <g id="Group">
            <path id="Vector"
                  d="M51.9998 63.9996C80.2768 63.9996 103.2 58.9852 103.2 52.7996C103.2 46.614 80.2768 41.5996 51.9998 41.5996C23.7228 41.5996 0.799805 46.614 0.799805 52.7996C0.799805 58.9852 23.7228 63.9996 51.9998 63.9996Z"
                  fill="#0047FF" fill-opacity="0.08"/>
            <g id="Group_2">
                <g id="Vector_2">
                    <path d="M88.8002 20.416L72.5666 2.0128C71.7874 0.7584 70.6498 0 69.4514 0H34.549C33.3506 0 32.213 0.7584 31.4338 2.0112L15.2002 20.4176V35.2H88.8002V20.416Z"
                          fill="#0047FF" fill-opacity="0.08"/>
                    <path d="M72.1419 2.27663L72.164 2.31218L72.1916 2.34356L88.3002 20.605V34.7H15.7002V20.6066L31.8088 2.34193L31.8364 2.31067L31.8584 2.27527C32.5763 1.121 33.5734 0.5 34.549 0.5H69.4514C70.4269 0.5 71.424 1.12089 72.1419 2.27663Z"
                          stroke="#0047FF" stroke-opacity="0.8"/>
                </g>
                <path id="Rectangle 122"
                      d="M16.0049 21H88.0049V51C88.0049 53.2091 86.214 55 84.0049 55H20.0049C17.7957 55 16.0049 53.2091 16.0049 51V21Z"
                      fill="white"/>
                <g id="Rectangle 125">
                    <rect x="33.0049" y="4" width="38" height="33" rx="4" fill="white"/>
                    <rect x="33.5049" y="4.5" width="37" height="32" rx="3.5" stroke="#0047FF" stroke-opacity="0.08"/>
                </g>
                <g id="Rectangle 93">
                    <rect x="33.0049" y="4" width="38" height="33" rx="4" fill="#0047FF" fill-opacity="0.24"/>
                    <rect x="33.5049" y="4.5" width="37" height="32" rx="3.5" stroke="#0047FF" stroke-opacity="0.08"/>
                </g>
                <g id="Rectangle 124">
                    <rect x="28.0049" y="9" width="48" height="34" rx="4" fill="white"/>
                    <rect x="28.5049" y="9.5" width="47" height="33" rx="3.5" stroke="#0047FF" stroke-opacity="0.08"/>
                </g>
                <g id="Rectangle 92">
                    <rect x="28.0049" y="9" width="48" height="34" rx="4" fill="#0047FF" fill-opacity="0.14"/>
                    <rect x="28.5049" y="9.5" width="47" height="33" rx="3.5" stroke="#0047FF" stroke-opacity="0.08"/>
                </g>
                <g id="Rectangle 123">
                    <rect x="21.0049" y="15" width="62" height="37" rx="4" fill="white"/>
                    <rect x="21.5049" y="15.5" width="61" height="36" rx="3.5" stroke="#0047FF" stroke-opacity="0.08"/>
                </g>
                <g id="Rectangle 91">
                    <rect x="21.0049" y="15" width="62" height="37" rx="4" fill="#0047FF" fill-opacity="0.12"/>
                    <rect x="21.5049" y="15.5" width="61" height="36" rx="3.5" stroke="#0047FF" stroke-opacity="0.08"/>
                </g>
                <g id="Vector_3">
                    <path d="M67.381 25.4894C67.381 22.9214 68.9714 20.8014 70.9442 20.7998H88.8002V49.819C88.8002 53.2158 86.6882 55.9998 84.0802 55.9998H19.9202C17.3122 55.9998 15.2002 53.2142 15.2002 49.819V20.7998H33.0562C35.029 20.7998 36.6194 22.9166 36.6194 25.4846V25.5198C36.6194 28.0878 38.2274 30.1614 40.1986 30.1614H63.8018C65.773 30.1614 67.381 28.0686 67.381 25.5006V25.4894Z"
                          fill="white"/>
                    <path d="M67.881 25.4894C67.881 24.305 68.2484 23.2411 68.8215 22.4839C69.3943 21.727 70.1492 21.3005 70.9444 21.2998H88.3002V49.819C88.3002 51.4172 87.8027 52.8538 87.0205 53.8801C86.2385 54.9062 85.1944 55.4998 84.0802 55.4998H19.9202C18.8061 55.4998 17.7619 54.9059 16.9799 53.8796C16.1977 52.8529 15.7002 51.4164 15.7002 49.819V21.2998H33.0562C33.8516 21.2998 34.6064 21.7253 35.1791 22.4812C35.752 23.2373 36.1194 24.3002 36.1194 25.4846V25.5198C36.1194 28.2362 37.8389 30.6614 40.1986 30.6614H63.8018C64.9758 30.6614 66.0062 30.0372 66.7271 29.0986C67.4479 28.1601 67.881 26.8857 67.881 25.5006V25.4894Z"
                          stroke="#0047FF" stroke-opacity="0.8"/>
                </g>
                <g id="Vector_4">
                    <path d="M67.381 25.4894C67.381 22.9214 68.9714 20.8014 70.9442 20.7998H88.8002V49.819C88.8002 53.2158 86.6882 55.9998 84.0802 55.9998H19.9202C17.3122 55.9998 15.2002 53.2142 15.2002 49.819V20.7998H33.0562C35.029 20.7998 36.6194 22.9166 36.6194 25.4846V25.5198C36.6194 28.0878 38.2274 30.1614 40.1986 30.1614H63.8018C65.773 30.1614 67.381 28.0686 67.381 25.5006V25.4894Z"
                          fill="#0047FF" fill-opacity="0.5"/>
                    <path d="M67.881 25.4894C67.881 24.305 68.2484 23.2411 68.8215 22.4839C69.3943 21.727 70.1492 21.3005 70.9444 21.2998H88.3002V49.819C88.3002 51.4172 87.8027 52.8538 87.0205 53.8801C86.2385 54.9062 85.1944 55.4998 84.0802 55.4998H19.9202C18.8061 55.4998 17.7619 54.9059 16.9799 53.8796C16.1977 52.8529 15.7002 51.4164 15.7002 49.819V21.2998H33.0562C33.8516 21.2998 34.6064 21.7253 35.1791 22.4812C35.752 23.2373 36.1194 24.3002 36.1194 25.4846V25.5198C36.1194 28.2362 37.8389 30.6614 40.1986 30.6614H63.8018C64.9758 30.6614 66.0062 30.0372 66.7271 29.0986C67.4479 28.1601 67.881 26.8857 67.881 25.5006V25.4894Z"
                          stroke="#0047FF" stroke-opacity="0.8"/>
                </g>
            </g>
        </g>
    </g>
</svg>
