<svg width="32" height="32" viewBox="0 0 32 32" fill="none" xmlns="http://www.w3.org/2000/svg">
    <path d="M19.1621 31.9999C19.0647 31.9999 18.9675 31.9934 18.8708 31.9803L2.25532 29.7549C0.990476 29.5854 0.000317453 28.3696 0.000317453 26.9875V8.19847C-0.00499483 7.8641 0.0564215 7.53246 0.180308 7.22656C0.304195 6.92066 0.487589 6.64781 0.717773 6.42693C0.947958 6.20605 1.21943 6.04243 1.51336 5.9474C1.80729 5.85237 2.11665 5.82822 2.41999 5.87661L19.0355 8.10199C20.3004 8.27142 21.2905 9.48726 21.2905 10.8694V29.6584C21.2959 29.9658 21.2447 30.2712 21.1399 30.5566C21.0352 30.842 20.8789 31.1016 20.6805 31.3199C20.4821 31.5383 20.2456 31.711 19.9848 31.8278C19.7241 31.9445 19.4446 32.0031 19.1628 31.9999H19.1621ZM2.13236 7.33091C1.93936 7.32646 1.75166 7.39993 1.60528 7.53721C1.52186 7.62108 1.45596 7.72353 1.41204 7.83763C1.36812 7.95172 1.34721 8.07479 1.35073 8.19847V26.9875C1.35073 27.615 1.8397 28.2143 2.41927 28.292L19.0348 30.5173C19.1493 30.5366 19.2664 30.5289 19.378 30.4948C19.4896 30.4607 19.5932 30.401 19.682 30.3197C19.7654 30.2358 19.8313 30.1333 19.8752 30.0192C19.9191 29.9052 19.94 29.7821 19.9365 29.6584V10.8702C19.9365 10.2426 19.4475 9.64336 18.868 9.5657L2.2546 7.34033C2.21406 7.33448 2.17324 7.33134 2.13236 7.33091Z"
          fill="#0047FF"/>
    <path d="M24.5307 29.0685C24.4345 29.0684 24.3384 29.0619 24.243 29.0489L22.8538 28.863C22.7658 28.8512 22.6808 28.8206 22.6036 28.773C22.5264 28.7254 22.4586 28.6616 22.404 28.5854C22.3494 28.5091 22.3091 28.4219 22.2855 28.3287C22.2618 28.2355 22.2551 28.1381 22.2659 28.0421C22.2768 27.9461 22.3048 27.8534 22.3485 27.7692C22.3921 27.685 22.4506 27.611 22.5205 27.5515C22.5903 27.4919 22.6703 27.448 22.7557 27.4221C22.8412 27.3963 22.9304 27.3891 23.0185 27.4009L24.4077 27.5868C24.5223 27.606 24.6394 27.5983 24.751 27.5641C24.8626 27.5298 24.9662 27.4699 25.0549 27.3883C25.1383 27.3045 25.2042 27.202 25.2481 27.0879C25.292 26.9738 25.3129 26.8507 25.3094 26.7271V7.94119C25.3094 7.31366 24.8204 6.71358 24.2409 6.63593L7.62319 4.41055C7.20469 4.35486 6.86457 4.58312 6.75527 4.99259C6.73481 5.09047 6.69623 5.18275 6.64189 5.26377C6.58755 5.34479 6.5186 5.41284 6.43927 5.46374C6.35995 5.51463 6.27192 5.5473 6.1806 5.55974C6.08928 5.57217 5.99659 5.56411 5.90823 5.53605C5.81987 5.50799 5.7377 5.46052 5.66677 5.39656C5.59584 5.3326 5.53764 5.2535 5.49575 5.16411C5.45386 5.07472 5.42917 4.97693 5.42318 4.87675C5.4172 4.77657 5.43005 4.67612 5.46095 4.58155C5.75576 3.47553 6.715 2.80408 7.79073 2.94841L24.4041 5.17378C25.6682 5.34322 26.6591 6.55827 26.6591 7.94119V26.7294C26.6642 27.0367 26.6128 27.3419 26.5078 27.6271C26.4029 27.9123 26.2465 28.1716 26.0481 28.3897C25.8496 28.6078 25.6131 28.7803 25.3524 28.8969C25.0918 29.0135 24.8123 29.0718 24.5307 29.0685Z"
          fill="#0047FF"/>
    <path d="M29.8691 26.1427C29.7729 26.1426 29.6768 26.136 29.5814 26.1231L28.1922 25.9372C28.0188 25.9077 27.8628 25.8058 27.757 25.6531C27.6512 25.5003 27.6041 25.3087 27.6254 25.1188C27.6468 24.9288 27.7351 24.7553 27.8716 24.635C28.0081 24.5148 28.1821 24.4571 28.3569 24.4742L29.7447 24.6601C29.8592 24.6796 29.9763 24.672 30.0879 24.6379C30.1995 24.6038 30.3032 24.544 30.3918 24.4625C30.4752 24.3786 30.5411 24.2762 30.5851 24.1621C30.629 24.048 30.6499 23.9249 30.6464 23.8012V5.0122C30.6464 4.38467 30.1567 3.78538 29.5778 3.70773L12.9616 1.48235C12.5424 1.42666 12.203 1.65492 12.0937 2.06439C12.073 2.16204 12.0342 2.25406 11.9798 2.3348C11.9253 2.41555 11.8564 2.48333 11.7771 2.53399C11.6978 2.58465 11.6099 2.61712 11.5187 2.62942C11.4275 2.64172 11.335 2.63359 11.2468 2.60553C11.1586 2.57746 11.0765 2.53006 11.0057 2.46621C10.9349 2.40236 10.8767 2.32341 10.8349 2.2342C10.793 2.14499 10.7682 2.04739 10.7621 1.94738C10.756 1.84737 10.7687 1.74705 10.7993 1.65257C11.0942 0.546549 12.0534 -0.124908 13.1291 0.0194241L29.7447 2.24166C31.0088 2.41109 31.9997 3.62693 31.9997 5.00907V23.8012C32.0051 24.1087 31.9538 24.4142 31.849 24.6996C31.7442 24.9851 31.5879 25.2447 31.3894 25.463C31.1909 25.6814 30.9543 25.8541 30.6935 25.9708C30.4327 26.0875 30.1531 26.146 29.8712 26.1427H29.8691Z"
          fill="#0047FF"/>
</svg>
